<svg xmlns="http://www.w3.org/2000/svg" viewBox="0 0 483.1 97.55"><defs><style>.cls-1{fill:#fff;}</style></defs><title>Logo</title><g id="Layer_2" data-name="Layer 2"><g id="Layer_1-2" data-name="Layer 1"><path class="cls-1" d="M0,7.5Q0,0,7.5,0h33a33.18,33.18,0,0,1,13,2.46,28.38,28.38,0,0,1,10,7A32.55,32.55,0,0,1,70,20.05a38.13,38.13,0,0,1,2.32,13.51A38.68,38.68,0,0,1,70,47.14a32.36,32.36,0,0,1-6.48,10.71,29.21,29.21,0,0,1-10,7,32.33,32.33,0,0,1-13,2.53H23.88V90q0,7.51-7.51,7.51H7.5Q0,97.55,0,90ZM35.61,46.93q6.27,0,9.34-3.75A14.68,14.68,0,0,0,48,33.56a14.36,14.36,0,0,0-3-9.48q-3-3.61-9-3.62H23.88V46.93Z"/><path class="cls-1" d="M102.38,6.14q2-6.13,8.46-6.14h12.27q6.42,0,8.46,6.14L159.81,89q1.37,4-.34,6.28t-5.8,2.32h-9c-4.28,0-7.09-2.09-8.46-6.28l-4.09-14.19H101.7L97.6,91.27q-1.77,6.28-8.32,6.28h-9c-2.73,0-4.67-.77-5.8-2.32s-1.25-3.64-.34-6.28ZM126.53,58l-5.46-19q-.69-2.33-1.3-5.19c-.41-1.91-.84-3.72-1.29-5.45-.46-2-.91-4.05-1.37-6.14h-.27c-.46,2.09-.91,4.14-1.37,6.14-.45,1.73-.88,3.54-1.29,5.45s-.84,3.64-1.3,5.19l-5.59,19Z"/><path class="cls-1" d="M171,7.5Q171,0,178.5,0H205a96.55,96.55,0,0,1,11.67.54,31.6,31.6,0,0,1,7.3,1.78A26.71,26.71,0,0,1,237.1,12.76q4.85,7.29,4.85,17.94a35.17,35.17,0,0,1-.89,7.84,32,32,0,0,1-2.73,7.5,28.39,28.39,0,0,1-4.57,6.55,21.24,21.24,0,0,1-6.41,4.71v.27c.27.37.59.82,1,1.37a12.18,12.18,0,0,1,1.16,1.84c.41.77.93,1.66,1.57,2.66L245,88.54q2.31,4,.75,6.48t-5.94,2.53H229.39a9.6,9.6,0,0,1-8.86-5.32L206.06,64.67H194.88V90q0,7.51-7.51,7.51H178.5q-7.5,0-7.5-7.51Zm34.25,36.7q5.73,0,9.07-3.07t3.34-8.93a15.9,15.9,0,0,0-1.16-6.35,7.82,7.82,0,0,0-4.57-4,23.36,23.36,0,0,0-9-1.37h-8.05V44.2Z"/><path class="cls-1" d="M278.39,20.46h-22.1q-7.5,0-7.5-7.5V7.5q0-7.5,7.5-7.5h68.08q7.5,0,7.51,7.5V13q0,7.5-7.51,7.5h-22.1V90q0,7.51-7.5,7.51H285.9q-7.5,0-7.51-7.51Z"/><path class="cls-1" d="M342.11,7.5q0-7.5,7.5-7.5h8.87Q366,0,366,7.5V77.08h32.34q7.5,0,7.5,7.51V90q0,7.51-7.5,7.51H349.61q-7.5,0-7.5-7.51Z"/><path class="cls-1" d="M430.69,57.57,403.54,9q-2.32-3.94-.75-6.48T408.73,0H419.5a9,9,0,0,1,8.74,5.59l8.45,17.88c.73,1.72,1.46,3.41,2.19,5s1.36,3.14,1.91,4.51q.94,2.44,1.77,4.5h.27q.82-2.06,1.78-4.5c.54-1.37,1.16-2.87,1.84-4.51s1.43-3.32,2.25-5L457,5.59A9,9,0,0,1,465.75,0h10.78q4.37,0,5.94,2.52T481.72,9L454.57,57.57V90q0,7.51-7.51,7.51h-8.87q-7.5,0-7.5-7.51Z"/></g></g></svg>