<svg width="26" height="21" viewBox="0 0 26 21" fill="none" xmlns="http://www.w3.org/2000/svg">
<path fill-rule="evenodd" clip-rule="evenodd" d="M11.0992 5.73126H1.62764C0.728717 5.73126 0 6.45998 0 7.3589C0 8.25782 0.728719 8.98654 1.62764 8.98654H11.4503C11.2018 8.18972 11.0679 7.34235 11.0679 6.46371C11.0679 6.21695 11.0785 5.97266 11.0992 5.73126ZM12.6761 11.4282H1.62764C0.728717 11.4282 0 12.1569 0 13.0559C0 13.9548 0.728719 14.6835 1.62764 14.6835H17.5061C15.5339 14.1991 13.8334 13.0235 12.6761 11.4282ZM0 18.7523C0 17.8534 0.728717 17.1247 1.62764 17.1247H17.904C18.8029 17.1247 19.5316 17.8534 19.5316 18.7523C19.5316 19.6512 18.8029 20.38 17.904 20.38H1.62764C0.728719 20.38 0 19.6512 0 18.7523Z" fill="#C4C4C4"/>
<path d="M25.3911 6.46374C25.3911 9.69964 22.7675 12.3232 19.5316 12.3232C16.2957 12.3232 13.6721 9.69964 13.6721 6.46374H14.6487C14.6487 9.15618 16.8392 11.3466 19.5316 11.3466C22.2241 11.3466 24.4145 9.15618 24.4145 6.46374C24.4145 3.7713 22.2241 1.58083 19.5316 1.58083C18.1757 1.58083 16.95 2.13797 16.0653 3.03447L17.0716 4.04084L13.6721 4.70199L14.3094 1.2776L15.3734 2.34208C16.4339 1.26979 17.9037 0.604248 19.5316 0.604248C22.7675 0.604248 25.3911 3.22784 25.3911 6.46374ZM19.0433 3.53399V7.44032H22.4614V6.46374H20.0199V3.53399H19.0433Z" fill="#C4C4C4"/>
</svg>
