<svg width="126" height="25" viewBox="0 0 126 25" fill="none" xmlns="http://www.w3.org/2000/svg">
<path d="M6.56406 16.7988V25H0.736908V0.828125H10.3824C12.2307 0.828125 13.8632 1.17122 15.2799 1.85742C16.7076 2.53255 17.8088 3.50098 18.5836 4.7627C19.3694 6.01335 19.7623 7.43555 19.7623 9.0293C19.7623 11.3867 18.9156 13.2738 17.2223 14.6904C15.54 16.096 13.2268 16.7988 10.2828 16.7988H6.56406ZM6.56406 12.2998H10.3824C11.5113 12.2998 12.3691 12.0176 12.9557 11.4531C13.5533 10.8887 13.8521 10.0918 13.8521 9.0625C13.8521 7.93359 13.5478 7.03158 12.9391 6.35645C12.3303 5.68132 11.5003 5.33822 10.4488 5.32715H6.56406V12.2998ZM93.4752 20.5176H103.619V25H87.6481V0.828125H93.4752V20.5176Z" fill="#E8453C"/>
<path d="M36.1029 20.4844H28.1175L26.723 25H20.4974L29.3627 0.828125H34.8412L43.7728 25H37.514L36.1029 20.4844ZM29.5121 15.9854H34.7084L32.1019 7.60156L29.5121 15.9854Z" fill="#3AA757"/>
<path d="M54.0206 16.4668H50.8663V25H45.0392V0.828125H54.5519C57.4184 0.828125 59.6596 1.46452 61.2755 2.7373C62.8914 4.01009 63.6993 5.80859 63.6993 8.13281C63.6993 9.8151 63.3562 11.2096 62.67 12.3164C61.9949 13.4232 60.9324 14.3197 59.4825 15.0059L64.5294 24.751V25H58.2872L54.0206 16.4668ZM50.8663 11.9678H54.5519C55.6586 11.9678 56.4887 11.68 57.0421 11.1045C57.6066 10.5179 57.8888 9.70443 57.8888 8.66406C57.8888 7.6237 57.6066 6.81022 57.0421 6.22363C56.4776 5.62598 55.6476 5.32715 54.5519 5.32715H50.8663V11.9678ZM114.414 11.3203L118.864 0.828125H125.156L117.37 16.3174V25H111.459V16.3174L103.69 0.828125H109.949L114.414 11.3203Z" fill="#4688F1"/>
<path d="M85.6844 5.32715H78.4296V25H72.6024V5.32715H65.4803V0.828125H85.6844V5.32715Z" fill="#FABB2D"/>
</svg>
